<svg width="78" height="48" viewBox="0 0 78 48" fill="none" xmlns="http://www.w3.org/2000/svg">
<path d="M77.0849 19.815C74.1233 17.2281 70.6938 15.3858 66.9805 14.002C55.1932 9.60837 40.5291 9.82752 28.7413 5.43464C25.7851 4.33295 23.0116 2.94202 20.5076 1.11548C20.2263 0.910358 19.9172 0.747782 19.5918 0.626521C17.9448 0.0127234 15.8907 0.461523 15.0374 1.82912L0.396651 25.295C-0.186193 26.2292 -0.0466436 27.3724 0.840194 28.1459C3.80124 30.7335 7.23079 32.5759 10.9441 33.9597C22.7318 38.3526 37.3969 38.1338 49.1847 42.5266C52.1409 43.6283 54.9144 45.0193 57.4184 46.8458C57.6998 47.0509 58.0088 47.2135 58.3342 47.3348C59.9813 47.9486 62.0353 47.4998 62.8886 46.1322L77.5289 22.667C78.1113 21.7317 77.9712 20.5893 77.0849 19.815V19.815ZM18.6432 5.12462C20.3361 6.21499 22.2291 7.15108 24.2336 8.02204C22.3146 9.98614 18.8194 10.7029 15.8526 9.59724L18.6432 5.12462ZM5.49111 26.2044L7.69604 22.6704C10.9854 23.8962 12.3884 26.9051 10.9598 29.4841C8.88717 28.5466 7.07932 27.4627 5.49111 26.2044V26.2044ZM34.5321 31.0814C30.303 29.5054 28.8598 25.0485 31.306 21.1276C33.7528 17.206 39.1643 15.3046 43.3925 16.8803C47.6206 18.456 49.0653 22.9125 46.6186 26.834C44.1714 30.7564 38.7593 32.6567 34.5321 31.0814ZM59.2814 42.8371C57.8073 41.8875 56.18 41.0568 54.4723 40.2755C56.2376 38.5558 59.2214 37.8628 61.9451 38.5678L59.2814 42.8371ZM70.1773 25.3734C67.4015 23.9825 66.2976 21.22 67.6765 18.8304C69.4464 19.6878 71.0344 20.6497 72.4335 21.7572L70.1773 25.3734Z" fill="#55229E" fill-opacity="0.11"/>
</svg>
